<svg version="1.1" viewBox="0 0 1696 1096" width="424" height="274" xmlns="http://www.w3.org/2000/svg">
<path transform="translate(0)" d="m0 0h1696v1096h-1696z" fill="#04080F"></path>
<path transform="translate(376,323)" d="m0 0h157l61 1 15 4 14 7 10 8 8 10 7 14 3 11 1 7v225l-3 14-5 13-8 11-9 9-13 8-18 6h-235l-12-3-16-8-11-9-9-12-5-11-4-17v-227l3-15 8-16 7-9 10-9 14-7 14-4z" fill="#050910"></path>
<path transform="translate(1220,323)" d="m0 0h174l44 1 15 4 14 7 10 8 8 10 7 15 3 11 1 8v219l-3 17-6 16-8 10-8 8-13 8-18 6h-234l-12-3-12-5-11-8-5-5-7-8-6-12-4-14-1-7v-224l3-15 5-12 8-12 7-7 10-7 12-5 11-3z" fill="#04080F"></path>
<path transform="translate(796,323)" d="m0 0h174l46 1 15 4 14 7 10 8 8 10 7 14 2 7 1 10v226l-2 15-5 12-7 10-5 6-14 10-11 5-11 3h-235l-14-4-14-7-12-11-6-7-7-14-3-12v-237l3-13 8-15 12-13 13-8 18-6z" fill="#04080F"></path>
<path transform="translate(1242,422)" d="m0 0h160l5 3 1 21v82l-1 8-3 3 14 1 9 3 3 5v12l-4 6-1 1-13 1h-185l-8-1-4-4-1-3v-13l5-5 7-2h14l-4-6v-107l3-4z" fill="#050910"></path>
<path transform="translate(440,379)" d="m0 0h9l5 3 2 6-1 6-3 4-1 4v35l22 1-1-7v-24l-1-9-3-4v-10l5-5h9l5 4 1 9-4 7-1 39h22l-1-38-4-8 1-9 5-4h9l5 5 1 7-2 5-3 3-1 39h10l5 2 6 7 1 5v8h41l1-4 1-1h10l5 3 1 2v9l-3 5-2 1h-10l-2-1-1-3-41-1 1 22h40l1-4 8-1 8 3 1 4v7l-1 4-4 2h-12l-1-3-40-1-1 22 41-1 1-4h9l6 2 2 4v7l-2 5-5 2-10-1-2-3-40-1v9l-3 7-4 4-3 1-11 1v39l4 4 1 7-3 7-2 1h-11l-4-4-1-2v-7l4-6 1-40-21 1v39l3 4 1 7-2 6-3 2h-11l-4-4v-10l2-3h2v-41h-21v38l4 5v11l-4 4h-12l-3-3-1-4v-7l4-4 1-3v-37l-11-1-5-3-5-6v-12l-41 1-1 3h-14l-3-4v-11l3-3 9-1 5 2 4 2h37v-18l1-3h-42l-1 4h-13l-3-4v-12l3-3h13l2 3 3 1 37 1v-10l1-13-41 1-2 4h-11l-5-4-1-8 2-5 4-3 6-1 5 2 2 4h40l1-12 6-8 4-2h12l-1-4-1-36-4-5v-7l3-6z" fill="#FCFCFC"></path>
<path transform="translate(180,819)" d="m0 0h70l18 3 9 4 11 8 6 9 4 15v13l-5 16-6 5-2 1v2l8 6 5 5 3 4 3 12v12l-2 14-4 8-9 10-11 6-13 3-14 1h-70l-1-1z" fill="#FCFCFC"></path>
<path transform="translate(1059,819)" d="m0 0h71l16 2 13 4 13 8 8 8 6 12 2 7v28l-4 11-6 9-7 7-9 5h-2l9 13 14 20 12 17 2 5h-45l-8-11-10-16-8-12-5-7-23-1 1 4v42l-1 1h-39z" fill="#FCFCFC"></path>
<path transform="translate(899,422)" d="m0 0 4 2 10 14h5l11-10 3 1v29l4 7 10 11 8 11v108h-108l-1-106 3-6 11-12 8-10 1-32h3l11 9 5-1 8-10z" fill="#FCFCFC"></path>
<path transform="translate(1371,823)" d="m0 0h64l3 7 5 16 21 64 13 40 9 26v2h-40l-3-5-5-16-4-16h-62l-1 7-6 19-3 10-1 1h-38l-1-4 7-21 6-19 7-22 8-26 10-31 10-30z" fill="#FCFCFC"></path>
<path transform="translate(785,313)" d="m0 0h230l15 3 12 5 10 6 10 8 10 13 8 16 3 11 1 13v210l-1 19-4 17-6 11-10 13-10 9-10 6-15 6-4 1-13 1h-227l-16-3-11-5-12-7-10-9-8-11-7-14-4-18-1-16v-193l1-23 3-16 5-12 8-12 10-11 13-9 15-6zm11 10-15 1-18 6-10 6-10 9-6 8-8 16-2 10v237l4 15 6 11 9 10 9 8 16 8 12 3h235l16-5 11-6 9-7 9-11 7-14 2-8 1-10v-226l-2-14-5-12-9-13-9-8-14-8-13-4-5-1-46-1z" fill="#F7F7F8"></path>
<path transform="translate(1207,313)" d="m0 0h231l14 3 12 5 12 7 12 11 9 14 6 13 3 13 1 21v203l-2 20-5 13-6 11-11 13-12 10-17 8-8 2-11 1h-229l-16-3-12-5-12-8-12-12-7-11-6-13-3-15-1-53v-115l1-62 2-15 5-13 7-11 9-11 11-9 17-8 11-3zm13 10-16 1-17 5-11 6-13 12-8 13-5 13-2 12v224l3 15 5 13 8 11 4 5 14 10 14 6 10 2h234l18-6 14-9 10-10 6-9 5-14 3-17v-219l-3-16-5-12-6-10-8-9-10-7-11-5-15-4-44-1z" fill="#F8F8F8"></path>
<path transform="translate(362,823)" d="m0 0h39l1 1 1 99 3 8 7 8 10 4h17l9-4 5-4 4-8 1-3 1-15v-84l1-2h39l1 2v90l-2 17-6 18-9 13-11 9-19 8-17 2h-13l-16-2-17-7-10-8-8-9-6-12-4-12-1-5z" fill="#FCFCFC"></path>
<path transform="translate(363,313)" d="m0 0h230l15 3 12 5 10 6 12 10 9 13 7 14 3 12 1 37v126l-1 75-2 13-7 16-8 11-4 5-8 7-11 7-14 6-17 2h-227l-17-3-12-5-12-8-13-13-9-15-4-11-2-12v-232l2-13 5-13 6-10 11-13 10-8 17-8 11-3zm13 10-16 1-17 5-11 6-12 11-7 10-7 16-2 12v227l4 17 7 14 9 11 12 9 16 7 9 2h235l18-6 14-9 10-10 6-9 6-16 2-11v-225l-3-15-5-12-7-10-7-8-14-9-13-5-9-2-61-1z" fill="#F7F7F7"></path>
<path transform="translate(895,823)" d="m0 0h98v32h-60v27h56v32h-56v30h60l1 1v30l-2 1h-97z" fill="#FDFDFD"></path>
<path transform="translate(1242,422)" d="m0 0h160l5 3 1 21v82l-1 8-3 3 14 1 9 3 3 5v12l-4 6-1 1-13 1h-185l-8-1-4-4-1-3v-13l5-5 7-2h14l-4-6v-107l3-4zm64 9-60 1v97l1 1h150l1-22v-74l-1-2-61-1z" fill="#FBFBFB"></path>
<path transform="translate(555,821)" d="m0 0h124v34h-42v119l-1 1h-39l-1-119-41-1-1-5v-27z" fill="#FCFCFC"></path>
<path transform="translate(738,821)" d="m0 0h37l3 3 1 117 57 1v33l-1 1h-97l-1-1v-153z" fill="#FBFBFB"></path>
<path transform="translate(1041,845)" d="m0 0 5 3 1 16-1 7 2 9v9l-1 7 1 15-1 15 1 4 1 5-3 4 1 7v24l2 5-1 3-3 1-5-3-1-4-5 3-11 1-4-3v2l-4 2-7-1-1-4 2-1 4 2 1-2h-4l-1-7-3-1v-9l-2-7-2-6-6-2-4 3h-2l-2-4-19-1-8 1-8-1-4 1-6-3-1-7 10-5 13-1 9 1 9-1 9-5 3-1 1-5h2l1-7v-12l-1-8-2-1v-2l-6-2-2 3h-55v-24h1v23l11-1v-3l-3-1-2-5h2l1-5 3-3h25l10 1 5-1h5l5-3 5-1 5-2-1-6 5-1-1 5v3 8l-4-1-3-1 1 3h8l3 1 1 4h-4v5h2v2h2l4-6 6 1 3 2 2-3h2l1-5 3-6 1-10 2-6z" fill="#111A29"></path>
<path transform="translate(1542,821)" d="m0 0h37l2 1v153l-2 1h-37l-1-2v-152z" fill="#FCFCFC"></path>
<path transform="translate(606,313)" d="m0 0 9 2v2l3-1 14 7v2l5 2 8 7 7 10 2 1 4 10 4 8 3 5 2 7v53l-1 15-1 173-2 11-2 4-1 5-2 6h-2l-2 10-7 9h-2v2l-5 4-1 2h-2l-1 3-15 8-6 2-14 4-8 1h-30l-179 1-26-1-15-3-12-5-11-7-9-12-8-9-4-2-4-7-1-5 1-5-2-1-1-3 1-2h-2l-2-12v-235l2-17 8-17 3 1v2l-4 4-1 4 4-6 3-5 2-4 17-17 5-1 2 2-11 8-9 10-8 13-5 13-2 13v232l3 15 4 10 9 14 12 12 13 8 14 5 13 2h227l17-2 16-7 10-7 5-5h2l2-4 8-10 7-15 2-7 1-9 1-75v-126l-1-37-3-12-8-16-10-13-13-10-15-7-6-2z" fill="#1C2432"></path>
<path transform="translate(341,814)" d="m0 0h3l2 4 4 1-1 9 1 3v25l1 16v54l5 5 1 6v7h2l3 10 6 9 2 5v5h2l3 7-4 4-3 1-4-7v-2l-5-2-6-1-1 2-1 9h-2l-1 10-3 19v11l-1 9v11l-2 1-1-11-1-30v-15l-1-25-1-4h-8l-1-4 1-2-11 2-1 1h-5l1-6-2-6h2v-8h-2l1-5 2-1v-13l-4-13-3-4-2 1-4-6v-8l2-3 3-1 2-4h5l3 4-3 2-1 4 5-3 4 1 1-3 1-7 3-3 9 3-2-9 2-5 2-16 2-27z" fill="#101928"></path>
<path transform="translate(1201,309)" d="m0 0 204 1 28 2v1l-226 1-15 3-16 7-9 6-8 7-10 14-5 10-4 13-1 10-1 62v115l1 53 3 15 8 17 8 10 9 9 13 8 14 5 12 2h229l16-2 16-7 9-6 10-9 10-14 7-15 2-4 1 6-1 10-2 1-1 7-8 11-13 13h-2v2l-12 6h-5l-1 2-15 5-4 1h-240l-9-2-17-6-11-7-4-6-13-13-4-7-3-3-2-6-1-7-2-5-2-13v-230l1-16 3-7h2l-1-6 4-8h2l2-4 6-8 6-7 12-8 14-6 5-2h9z" fill="#141D2B"></path>
<path transform="translate(889,450)" d="m0 0 5 2 2 1h8l5-3h2l4 16 5 14 1 10-5 21-8 32-5 21-2 7-3-1-7-30-10-40-2-7v-12l8-22z" fill="#060A11"></path>
<path transform="translate(714,440)" d="m0 0h1l1 158 1 16 4 18 8 16 11 13 13 9 12 6 12 3 7 1h227l13-1 15-5 11-6 11-9 9-11 8-14 3-11h1l1 9-5 12-3 5v5l-2 3h-2l-2 4-5 5-5 4-4 1-2 4-10 5-5 1-7 3h-6v2l-9 1h-192l-14 1-27-1-18-4-8-4-7-3-5-5-4-2-4-4v-2l-4-2-8-11-1-2-2 1v-3h-2l-2-5-3-5-2-10z" fill="#141D2B"></path>
<path transform="translate(1098,852)" d="m0 0h31l11 4 6 7 2 9-1 12-4 6-7 6-3 1h-35z" fill="#141D2B"></path>
<path transform="translate(1280,548)" d="m0 0h112l5 1v10l-1 1h-148l-1-1v-10z" fill="#C6C7CA"></path>
<path transform="translate(1201,309)" d="m0 0 204 1 28 2v1l-226 1-15 3-16 7-9 6-8 7-10 14-5 10-4 13-1 10-1 62v115l1 53 3 17-2-1-3-11-1-6-1-247 3-7h2l-1-6 4-8h2l2-4 6-8 6-7 12-8 14-6 5-2h9z" fill="#1E2532"></path>
<path transform="translate(219,912)" d="m0 0h33l8 3 4 6 1 3v10l-3 7-5 4-4 1h-34l-1-33z" fill="#141C2B"></path>
<path transform="translate(989,878)" d="m0 0 7 3v2l3 1 1 11v10l-2 6h-2l-1 5-8 5-5 2-10 1-13-1-9 2-7 3v7l7 2 6-1 7 1 13-1 12 1 4 6v1h-59v-30h56l-1-32-1-2h2z" fill="#0C1017"></path>
<path transform="translate(787,309)" d="m0 0 202 1 17 1 6 1v1l-227 1-15 3-15 6-10 7-9 8-10 14-5 11-3 12-1 7-1 23h-1l-2-12-1-3v-14l2-16 8-16 11-13 7-7 13-8 13-5 6-1 1 1z" fill="#1F2634"></path>
<path transform="translate(1400,854)" d="m0 0h5l4 8 6 18 8 25v3h-41l9-30 7-22z" fill="#121B29"></path>
<path transform="translate(219,849)" d="m0 0h26l9 3 5 8v11l-3 6-5 4-3 1h-29z" fill="#121A29"></path>
<path transform="translate(1098,852)" d="m0 0h31l11 4 6 7 2 9-1 8h-1l-1-9-2 3-1-3-6-2-5-3-4-1h-13l-4 6-1 9v2l4 5 7 3 1 2h-2v3l-2 1h-17v-7l-1-1z" fill="#060A11"></path>
<path transform="translate(659,371)" d="m0 0h1l1 5 1 37v126l-1 75-2 13-7 16-1-4 3-8h2v-6l1-5v-39l-1-7 1-117 1-14v-23l1-11z" fill="#C9CACC"></path>
<path transform="translate(356,309)" d="m0 0 153 1h28l62 1 4 2-3 1h-237l-15 3-14 6-5-2-5 1 5-5 12-5 5-2h9z" fill="#262C39"></path>
<path transform="translate(402,824)" d="m0 0h1l1 60v32l3 8 2-1 2 4v3l6-1 1-12h2v2l11 1 7 3 1 2 5-2-2 4h-2l-3 10v3l-5 1h-4-3l-1-4-4 1h-2l3 3-4 1-6-4-6-7-3-8z" fill="#131C2A"></path>
<path transform="translate(1112,942)" d="m0 0 9 2 7 11 4 9 5 11v7l-4 3-8-1-1 2h-2l1 12v9l-2 1-1-24-1-11v-11l-4-1-4-12z" fill="#111A29"></path>
<path transform="translate(1167,666)" d="m0 0 5 2 8 5 14 5 12 2h229l16-2 16-7 4-1-3 3-15 7-14 3h-231l-12-1-14-5-11-6z" fill="#52545C"></path>
<path transform="translate(629,667)" d="m0 0 2 1-8 6-15 6-8 2-9 1h-227l-12-1-14-5-9-5-3-4 5 2 12 6 12 3 8 1h227l17-2 16-7z" fill="#52545C"></path>
<path transform="translate(660,371)" d="m0 0 2 4 2 7v209l-1 24-3 13-2 2 2-16 1-75v-126z" fill="#52545C"></path>
<path transform="translate(862,870)" d="m0 0 3 1v8l-1 5 1 9v37l1 6-1 2v27l-1 6v25l-1 18-2-1-1-25v-23l-1-11-2-5 2-3-2-11 3-8-1-4 1-36 1-16z" fill="#111A29"></path>
<path transform="translate(1400,854)" d="m0 0h5l4 8 2 5v6l-2 2-3-3v-2l-6 1-2 5v3l-2 1 1 5-3 7-1 1 2 8 7 1 5 2 1 2-2 2h-24l9-30 7-22z" fill="#0A0E16"></path>
<path transform="translate(1469,320)" d="m0 0 5 1v2l5 2v2l5 2v2h2v2h3l1 4 4 2 4 4 6 18 4 9 1 5-1 221h-1l-1-196-1-21-4-16-9-17-8-10-11-9-5-4z" fill="#272E3A"></path>
<path transform="translate(606,313)" d="m0 0 9 2v2l3-1 14 7v2l5 2 8 7 7 10 2 1 4 10 4 8 3 5 2 7v53l-1 15h-2l-1-61-2-7v-4h-2l-5-14-9-15-6-7-13-10-15-7-6-2z" fill="#151E2C"></path>
<path transform="translate(1083,388)" d="m0 0h1v210l-1 19-1 6h-1v-18l-2-5v-17l-1-25 1-13 1-4 1-15 1-22z" fill="#C9CACC"></path>
<path transform="translate(1047,670)" d="m0 0 2 1-16 8-12 3-9 1h-223l-16-1-9-4-6-3 3-1 11 4 12 2h227l13-1 15-5z" fill="#52545C"></path>
<path transform="translate(462,480)" d="m0 0 5 1 11 33v3l-6-1-3-5-1-3h-11l-2 8-1 1h-5l4-16 8-20z" fill="#0D1119"></path>
<path transform="translate(898,818)" d="m0 0 20 1h48l23-1 3 5h-97v153h-1v-155l1-2z" fill="#313642"></path>
<path transform="translate(220,913)" d="m0 0h36l5 3 3 5v7h-2l-2-2-5-3h-14l-9 1-3 1-1 2 2 1-5 1-2-2-2 2-1-6z" fill="#050910"></path>
<path transform="translate(1184,928)" d="m0 0 4 2 18 1 101 1 5-1 7 2-1 2h-50l-76 1-3 1-7-3-3-3z" fill="#101928"></path>
<path transform="translate(1139,370)" d="m0 0 1 4-1 10-1 62v115l1 53 3 17-2-1-3-11-1-6v-238l2-2z" fill="#52545C"></path>
<path transform="translate(1060,814)" d="m0 0h19l23 1 9 1v1l15 1v1h-67v156h-1l-1-157z" fill="#363B46"></path>
<path transform="translate(363,819)" d="m0 0h35l3 3v1h-39v99l-2-2-1-92 2-8z" fill="#2B313D"></path>
<path transform="translate(483,480)" d="m0 0h16l4 1-1 4-3 1-4-1v27l7 1 1 3h-21l2-3 4-1v-26l-5-3z" fill="#1C2028"></path>
<path transform="translate(1376,815)" d="m0 0h7l15 4h34l3 3v1h-64l-2 7-2-1v-5l4-6h5z" fill="#1F2634"></path>
<path transform="translate(1057,820)" d="m0 0h1v154l-2 1v-76l-1-41v-26l1-11z" fill="#111A29"></path>
<path transform="translate(1041,318)" d="m0 0 5 1 5 4 6 3v2l5 1 5 5 7 9 4 5 7 20-3 3-2-4-5-12-6-10-9-11-14-10-5-3z" fill="#171F2D"></path>
<path transform="translate(664,443)" d="m0 0h1v173l-2 11-2 3h-2l3-15 1-24z" fill="#111A29"></path>
<path transform="translate(1381,955)" d="m0 0 2 1 1 10v29l-1 14v8l-2 1-1-15-2-42z" fill="#111A29"></path>
<path transform="translate(931,538)" d="m0 0 6 1 3 4v7l-6 5-6-1-4-6 1-7 2-2z" fill="#0E1219"></path>
<path transform="translate(864,538)" d="m0 0h6l4 2 2 4v5l-7 6-6-2-3-3v-8z" fill="#0C1018"></path>
<path transform="translate(866,564)" d="m0 0 6 2 3 3 1 6-1 3-5 3h-6l-4-4v-8l3-4z" fill="#0C1018"></path>
<path transform="translate(931,564)" d="m0 0 5 1 3 3 1 8-1 3-4 2h-6l-5-5 1-7z" fill="#0C1018"></path>
<path transform="translate(931,511)" d="m0 0 6 1 3 4v6l-4 5-5 1-7-6v-6l4-4z" fill="#0C1017"></path>
<path transform="translate(865,511)" d="m0 0 7 1 3 3 1 7-7 6-5-1-4-4v-7z" fill="#0B0F17"></path>
<path transform="translate(461,820)" d="m0 0m-2 1 41 1v1h-39v86l-1 15h-1l-1-100z" fill="#2F3440"></path>
<path transform="translate(1022,947)" d="m0 0 7 2 4 6v7h-5l-4-3h-8v2l-5-1 1-4 4-2 4-6z" fill="#04080F"></path>
<path transform="translate(1141,877)" d="m0 0 1 4h2l-1 5-1 2h-3l-2 7-1 1h-10l1-2-4-2v-2l5-1 1-3 4-2 5-4z" fill="#050910"></path>
<path transform="translate(325,319)" d="m0 0m-1 1m5 0 2 1 1 3h-7l-8 7-5 5-4 5h-2l-2 7-5 6-4 5 1-4 4-7h2l-1-5 11-14 10-8z" fill="#111A29"></path>
<path transform="translate(186,814)" d="m0 0 20 1 6 2 30 1v1h-62v-2z" fill="#2C323E"></path>
<path transform="translate(522,931)" d="m0 0 41 1 2 2-1 1h-42l-3-2z" fill="#111A29"></path>
<path transform="translate(325,323)" d="m0 0 5 1-5 4-10 9-9 12-2-1 1-5 6-7 12-12z" fill="#171F2D"></path>
<path transform="translate(490,487)" d="m0 0h1l1 22 2-5h1v8l7 1 1 3h-21l2-3 5-2z" fill="#0B1018"></path>
<path transform="translate(1372,941)" d="m0 0h62l-2 4v-2h-15l-1 1h-25-1-8v-1l-8-1-1 3z" fill="#121B29"></path>
<path transform="translate(650,932)" d="m0 0h32l9 1-4 2h-37z" fill="#111A29"></path>
<path transform="translate(292,887)" d="m0 0v3 2h2l3 6v3l-4 1-9-7 1-3 6-4z" fill="#1C2330"></path>
<path transform="translate(536,311)" d="m0 0h63l4 2-3 1h-7l-4-1-53-1z" fill="#111A29"></path>
<path transform="translate(1418,895)" d="m0 0 2 1 2 6v5h-5v-2l-7 1 5-10 3 1z" fill="#0B1018"></path>
<path transform="translate(465,819)" d="m0 0 31 1 2 2h-37l1-2z" fill="#111A29"></path>
<path transform="translate(412,981)" d="m0 0h35v1l-22 2-4 1h-9z" fill="#212835"></path>
<path transform="translate(1098,928)" d="m0 0h17v1h-15l1 2-1 12-1 20h-1z" fill="#303541"></path>
<path transform="translate(1181,903)" d="m0 0 2 3-1 2 2 1h-2l-1 3-7 4-1 2h-2v-2l-2-1 8-7z" fill="#1C2330"></path>
<path transform="translate(1188,863)" d="m0 0 3 3v17l-2 4h-1z" fill="#272D3A"></path>
<path transform="translate(329,320)" d="m0 0 2 1 1 3h-7l-8 7-5 5-4 5h-2l2-4 7-8h2l1-3 8-5z" fill="#050911"></path>
<path transform="translate(1008,890)" d="m0 0h2l1 2 8 3v3h-11l-1-6z" fill="#04080F"></path>
<path transform="translate(878,930)" d="m0 0h3l1 6-4 3-6-2 1-4z" fill="#111A29"></path>
<path transform="translate(601,989)" d="m0 0h2l2 6-1 11-1 3-2-1-1-17z" fill="#111A29"></path>
<path transform="translate(1072,645)" d="m0 0 1 2-8 11-8 8-5 4-3-1 13-11 8-10z" fill="#52545C"></path>
<path transform="translate(1311,931)" d="m0 0 8 2-1 2h-19v-3h8z" fill="#111A29"></path>
<path transform="translate(553,821)" d="m0 0h2v34l-3-1z" fill="#242B38"></path>
<path transform="translate(305,921)" d="m0 0h1v18l-3 7-1-3 2-20z" fill="#1E2533"></path>
<path transform="translate(369,949)" d="m0 0 4 5 9 12h-3l-6-7-3-2-2-4z" fill="#1A222F"></path>
<path transform="translate(318,894)" d="m0 0 4 2v3l5 1-2 4-5 1-2-5z" fill="#04080F"></path>
<path transform="translate(1009,311)" d="m0 0h12l7 1-1 3-12-1-6-2z" fill="#1B222F"></path>
<path transform="translate(491,487)" d="m0 0 2 1 1 17-2 5h-1z" fill="#111A29"></path>
<path transform="translate(333,887)" d="m0 0h2l2 6-1 5-4-1-1-4z" fill="#04080F"></path>
<path transform="translate(645,652)" d="m0 0 1 3-5 6-8 6-2-1 7-7h2l2-4z" fill="#52545C"></path>
<path transform="translate(900,424)" d="m0 0 4 4-1 4h-6l-1-3z" fill="#21242C"></path>
<path transform="translate(1041,318)" d="m0 0 5 1 6 5-1 2-5-2-5-3z" fill="#18202E"></path>
<path transform="translate(335,946)" d="m0 0h2l2 6-1 3-4-1v-2l-2-1z" fill="#04080F"></path>
<path transform="translate(1030,313)" d="m0 0 9 3 1 4-10-3-3-2h3z" fill="#1D2330"></path>
<path transform="translate(1362,843)" d="m0 0h2l-2 9-2 3-2 1 2-10z" fill="#19202E"></path>
<path transform="translate(462,492)" d="m0 0h2l2 10-5-1z" fill="#E8E8E9"></path>
<path transform="translate(360,921)" d="m0 0 2 1 1 10-2 2-2-3z" fill="#141D2C"></path>
<path transform="translate(222,853)" d="m0 0h5v2l4 1-7 2-3 2z" fill="#04080F"></path>
<path transform="translate(899,422)" d="m0 0 4 2 2 3h-3l-2-2-4 6-2-1 2-5z" fill="#EBECEC"></path>
<path transform="translate(589,311)" d="m0 0h10l4 2-3 1h-7l-4-1z" fill="#1B2331"></path>
<path transform="translate(1144,884)" d="m0 0 2 2-7 8-1-4 5-5z" fill="#161E2B"></path>
<path transform="translate(606,313)" d="m0 0 9 2 1 4-11-3z" fill="#1F2634"></path>
<path transform="translate(304,343)" d="m0 0 1 2-3 5-6 9-1-3 5-8h2z" fill="#04080F"></path>
<path transform="translate(976,874)" d="m0 0 4 2-1 3h-6v-4z" fill="#04080F"></path>
<path transform="translate(309,334)" d="m0 0v3l-2 2-1 4-3 3h-2l1-4z" fill="#0F1826"></path>
<path transform="translate(1029,941)" d="m0 0h3l1 5-3 3-2-3z" fill="#04080F"></path>
</svg>
