<svg xmlns="http://www.w3.org/2000/svg" viewBox="0 0 412 200" width="412" height="200">
<defs>

  
  <linearGradient id="bg" x1="0%" y1="0%" x2="100%" y2="100%">
    <stop offset="0%" stop-color="#0f0000"></stop>
    <stop offset="50%" stop-color="#070000"></stop>
    <stop offset="100%" stop-color="#030000"></stop>
  </linearGradient>

  <linearGradient id="butlerGrad" x1="0%" y1="0%" x2="100%" y2="0%">
    <stop offset="0%" stop-color="#ffffff"></stop>
    <stop offset="52%" stop-color="#ffe0e0"></stop>
    <stop offset="100%" stop-color="#ff3010"></stop>
  </linearGradient>

  <linearGradient id="edgeLine" x1="0%" y1="0%" x2="100%" y2="0%">
    <stop offset="0%" stop-color="#ff2020" stop-opacity="0"></stop>
    <stop offset="50%" stop-color="#ff2020" stop-opacity="0.9"></stop>
    <stop offset="100%" stop-color="#ff2020" stop-opacity="0"></stop>
  </linearGradient>

  <linearGradient id="btnActiveGrad" x1="0%" y1="0%" x2="100%" y2="0%">
    <stop offset="0%" stop-color="#3a0000"></stop>
    <stop offset="50%" stop-color="#550000"></stop>
    <stop offset="100%" stop-color="#3a0000"></stop>
  </linearGradient>

  <radialGradient id="centerHalo" cx="50%" cy="50%" r="50%">
    <stop offset="0%" stop-color="#ff1010" stop-opacity="0.8"></stop>
    <stop offset="50%" stop-color="#cc0000" stop-opacity="0.3"></stop>
    <stop offset="100%" stop-color="#ff0000" stop-opacity="0"></stop>
  </radialGradient>

  <radialGradient id="panelGlow" cx="50%" cy="50%" r="50%">
    <stop offset="0%" stop-color="#ff2020" stop-opacity="0.12"></stop>
    <stop offset="100%" stop-color="#ff0000" stop-opacity="0"></stop>
  </radialGradient>

  
  <pattern id="hexPat" width="24" height="20.78" patternUnits="userSpaceOnUse">
    <path d="M12 0 L24 6 L24 18 L12 24 L0 18 L0 6 Z" fill="none" stroke="#3d0000" stroke-width="0.45" opacity="0.45"></path>
  </pattern>
  <pattern id="hexPat2" width="24" height="20.78" patternUnits="userSpaceOnUse" patternTransform="translate(12 10.39)">
    <path d="M12 0 L24 6 L24 18 L12 24 L0 18 L0 6 Z" fill="none" stroke="#2a0000" stroke-width="0.3" opacity="0.3"></path>
  </pattern>

  
  <pattern id="scanPat" width="1" height="3" patternUnits="userSpaceOnUse">
    <rect y="0" width="1" height="1" fill="#000000" opacity="0.18"></rect>
  </pattern>

  
  <filter id="sg" x="-40%" y="-40%" width="180%" height="180%">
    <feGaussianBlur stdDeviation="1.8" result="b"></feGaussianBlur>
    <feMerge><feMergeNode in="b"></feMergeNode><feMergeNode in="SourceGraphic"></feMergeNode></feMerge>
  </filter>
  <filter id="mg" x="-60%" y="-60%" width="220%" height="220%">
    <feGaussianBlur stdDeviation="3.5" result="b"></feGaussianBlur>
    <feMerge><feMergeNode in="b"></feMergeNode><feMergeNode in="SourceGraphic"></feMergeNode></feMerge>
  </filter>
  <filter id="lg" x="-100%" y="-100%" width="300%" height="300%">
    <feGaussianBlur stdDeviation="7" result="b"></feGaussianBlur>
    <feMerge><feMergeNode in="b"></feMergeNode><feMergeNode in="SourceGraphic"></feMergeNode></feMerge>
  </filter>
  <filter id="bloom" x="-80%" y="-80%" width="260%" height="260%">
    <feGaussianBlur stdDeviation="5" result="b"></feGaussianBlur>
    <feFlood flood-color="#ff1000" flood-opacity="0.55" result="c"></feFlood>
    <feComposite in="c" in2="b" operator="in" result="cb"></feComposite>
    <feMerge><feMergeNode in="cb"></feMergeNode><feMergeNode in="SourceGraphic"></feMergeNode></feMerge>
  </filter>
  <filter id="dof" x="-5%" y="-5%" width="110%" height="110%">
    <feGaussianBlur stdDeviation="0.6"></feGaussianBlur>
  </filter>

  
  <clipPath id="panelClip"><rect x="6" y="6" width="400" height="156" rx="10"></rect></clipPath>
  <clipPath id="leftClip"> <rect x="6" y="6" width="130" height="156" rx="10"></rect></clipPath>
  <clipPath id="rightClip"><rect x="140" y="6" width="266" height="156" rx="10"></rect></clipPath>

</defs>


<style>
  /* ── Core pulse / flicker ──────────────────────────────── */
  .P  { animation: P 2.6s ease-in-out infinite; }
  .P2 { animation: P 2.6s ease-in-out infinite 1.3s; }
  .bl { animation: bl 1.1s step-end infinite; }
  .bs { animation: bs 2.8s ease-in-out infinite; }
  .fd { animation: fd 3.2s ease-in-out infinite; }
  .flk{ animation: flk 6s  ease-in-out infinite; }

  /* ── Rotations ─────────────────────────────────────────── */
  .cw { transform-box:fill-box;transform-origin:center;animation:cw 14s linear infinite; }
  .cc { transform-box:fill-box;transform-origin:center;animation:cc  9s linear infinite; }
  .cs { transform-box:fill-box;transform-origin:center;animation:cw 28s linear infinite; }

  /* ── Scan / sweep ──────────────────────────────────────── */
  .sc { animation: sc 4.2s linear infinite; }
  .sc2{ animation: sc 4.2s linear infinite 2.1s; }
  .lsc{ animation: lsc 5s  linear infinite; }

  /* ── Coordinate cycling ────────────────────────────────── */
  .cy1{ animation: cy1 4.5s step-end infinite; }
  .cy2{ animation: cy2 4.5s step-end infinite; }
  .cy3{ animation: cy3 4.5s step-end infinite; }

  /* ── Data / status flicker ─────────────────────────────── */
  .df { animation: df 2.8s ease-in-out infinite; }
  .df2{ animation: df 2.8s ease-in-out infinite 0.9s; }
  .df3{ animation: df 2.8s ease-in-out infinite 1.8s; }

  /* ── Active button pulse ───────────────────────────────── */
  .abtn{ animation: abtn 1.8s ease-in-out infinite; }
  .ainner{ animation: ainner 2s linear infinite; }

  /* ── Scroll (data stream) ──────────────────────────────── */
  .ds1{ animation: ds 6s linear infinite; }
  .ds2{ animation: ds 6s linear infinite 2s; }
  .ds3{ animation: ds 6s linear infinite 4s; }

  /* ── Corner glow ───────────────────────────────────────── */
  .cg { animation: cg 3s ease-in-out infinite; }

  @keyframes P   { 0%,100%{opacity:.92} 50%{opacity:.18} }
  @keyframes bl  { 0%,49%{opacity:1} 50%,100%{opacity:0} }
  @keyframes bs  { 0%,65%{opacity:.85} 66%,100%{opacity:.07} }
  @keyframes fd  { 0%,100%{opacity:.7} 50%{opacity:.1} }
  @keyframes flk {
    0%,100%{opacity:1} 3%{opacity:.9} 4%{opacity:1} 18%{opacity:.95}
    19%{opacity:.7} 20%{opacity:1} 55%{opacity:.98} 56%{opacity:.6}
    57%{opacity:1} 80%{opacity:.95}
  }
  @keyframes cw  { from{transform:rotate(0)} to{transform:rotate(360deg)} }
  @keyframes cc  { from{transform:rotate(0)} to{transform:rotate(-360deg)} }
  @keyframes sc  {
    0%  {transform:translateY(-170px);opacity:0}
    6%  {opacity:.55}
    94% {opacity:.55}
    100%{transform:translateY(170px);opacity:0}
  }
  @keyframes lsc {
    0%  {transform:translateY(-10px);opacity:0}
    5%  {opacity:.35}
    95% {opacity:.35}
    100%{transform:translateY(160px);opacity:0}
  }
  @keyframes cy1 { 0%,32%{opacity:1} 33%,100%{opacity:0} }
  @keyframes cy2 { 0%,32%{opacity:0} 33%,65%{opacity:1} 66%,100%{opacity:0} }
  @keyframes cy3 { 0%,65%{opacity:0} 66%,100%{opacity:1} }
  @keyframes df  {
    0%,100%{opacity:.85} 15%{opacity:.45} 17%{opacity:.85}
    50%{opacity:.65} 52%{opacity:.85} 80%{opacity:.35} 82%{opacity:.85}
  }
  @keyframes abtn {
    0%,100%{opacity:1;stroke-width:1.6} 50%{opacity:.5;stroke-width:.8}
  }
  @keyframes ainner {
    0%  {transform:translateX(-70px)}
    100%{transform:translateX(70px)}
  }
  @keyframes ds  {
    0%  {transform:translateY(0)}
    100%{transform:translateY(-110px)}
  }
  @keyframes cg  { 0%,100%{opacity:1;stroke-width:2.2} 50%{opacity:.25;stroke-width:.8} }
</style>



<rect width="412" height="200" fill="url(#bg)"></rect>
<rect width="412" height="200" fill="url(#hexPat)" opacity="0.7"></rect>
<rect width="412" height="200" fill="url(#hexPat2)" opacity="0.5"></rect>

<rect width="412" height="200" fill="url(#scanPat)" opacity="0.9"></rect>


<rect width="412" height="200" fill="#ff0000" opacity="0" class="flk" style="mix-blend-mode:screen"></rect>


<g class="cg" stroke="#ff2020" stroke-width="2.2" fill="none" filter="url(#sg)">
  <path d="M4 18 L4 4 L18 4"></path>
  <path d="M394 4 L408 4 L408 18"></path>
  <path d="M4 182 L4 196 L18 196"></path>
  <path d="M394 196 L408 196 L408 182"></path>
</g>

<g class="P2" stroke="#ff2020" stroke-width="4" fill="none" opacity="0.12" filter="url(#lg)">
  <path d="M4 18 L4 4 L18 4"></path>
  <path d="M394 4 L408 4 L408 18"></path>
  <path d="M4 182 L4 196 L18 196"></path>
  <path d="M394 196 L408 196 L408 182"></path>
</g>


<rect x="6" y="6" width="400" height="156" rx="10" fill="#070000" stroke="#280808" stroke-width="1.2"></rect>
<rect x="6" y="6" width="400" height="156" rx="10" fill="none" stroke="#ff2020" stroke-width="1.4" class="P" filter="url(#sg)"></rect>

<rect x="6" y="6" width="400" height="156" rx="10" fill="none" stroke="#ff2020" stroke-width="6" class="P2" opacity="0.07" filter="url(#lg)"></rect>


<rect x="6" y="80" width="400" height="8" fill="url(#centerHalo)" clip-path="url(#panelClip)" class="sc" opacity="0.4"></rect>
<rect x="6" y="80" width="400" height="5" fill="url(#centerHalo)" clip-path="url(#panelClip)" class="sc2" opacity="0.22"></rect>




<rect x="6" y="6" width="130" height="156" rx="10" fill="#050000" stroke="#1c0606" stroke-width="1"></rect>


<g stroke="#ff2020" stroke-width="1.2" fill="none" class="P" filter="url(#sg)">
  <path d="M6 18  L6  6  L18  6"></path><path d="M118 6  L136 6  L136 18"></path>
  <path d="M6 150 L6  162 L18  162"></path><path d="M118 162 L136 162 L136 150"></path>
</g>


<rect x="6" y="0" width="130" height="3" fill="url(#centerHalo)" opacity="0.3" clip-path="url(#leftClip)" class="lsc"></rect>


<text x="71" y="21" text-anchor="middle" font-family="monospace" font-size="7" fill="#ff4020" letter-spacing="2.5" font-weight="bold" filter="url(#sg)">COMMAND</text>
<line x1="18" y1="25" x2="124" y2="25" stroke="#ff2020" stroke-width="0.5" opacity="0.3"></line>


<g class="cs">
  <circle cx="71" cy="88" r="50" fill="none" stroke="#ff2020" stroke-width="0.5" stroke-dasharray="3 9" opacity="0.3" filter="url(#sg)"></circle>
</g>
<g class="cc">
  <circle cx="71" cy="88" r="37" fill="none" stroke="#dd0000" stroke-width="0.7" stroke-dasharray="8 5" opacity="0.45"></circle>
  <rect x="68" y="50" width="6" height="2.5" rx="1" fill="#ff2020" opacity="0.8"></rect>
  <rect x="68" y="123" width="6" height="2.5" rx="1" fill="#ff2020" opacity="0.8"></rect>
  <rect x="33" y="85.5" width="2.5" height="6" rx="1" fill="#ff2020" opacity="0.8"></rect>
  <rect x="105" y="85.5" width="2.5" height="6" rx="1" fill="#ff2020" opacity="0.8"></rect>
</g>
<g class="cw">
  <circle cx="71" cy="88" r="22" fill="none" stroke="#ff3020" stroke-width="0.9" stroke-dasharray="2.5 4.5" opacity="0.6"></circle>
</g>

<circle cx="71" cy="88" r="14" fill="none" stroke="#ff2020" stroke-width="1.8" opacity="0.88" filter="url(#mg)"></circle>


<line x1="14" y1="88" x2="51" y2="88" stroke="#ff2020" stroke-width="1" opacity="0.7" filter="url(#sg)"></line>
<line x1="91" y1="88" x2="128" y2="88" stroke="#ff2020" stroke-width="1" opacity="0.7" filter="url(#sg)"></line>
<line x1="71" y1="30" x2="71" y2="68" stroke="#ff2020" stroke-width="1" opacity="0.7" filter="url(#sg)"></line>
<line x1="71" y1="108" x2="71" y2="145" stroke="#ff2020" stroke-width="1" opacity="0.7" filter="url(#sg)"></line>

<line x1="57" y1="88" x2="65" y2="88" stroke="#ff6040" stroke-width="0.8" opacity="0.5"></line>
<line x1="77" y1="88" x2="85" y2="88" stroke="#ff6040" stroke-width="0.8" opacity="0.5"></line>
<line x1="71" y1="74" x2="71" y2="82" stroke="#ff6040" stroke-width="0.8" opacity="0.5"></line>
<line x1="71" y1="94" x2="71" y2="102" stroke="#ff6040" stroke-width="0.8" opacity="0.5"></line>


<circle cx="71" cy="88" r="18" fill="url(#centerHalo)" class="P2"></circle>
<circle cx="71" cy="88" r="6" fill="#ff0e0e" class="P" filter="url(#lg)"></circle>
<circle cx="71" cy="88" r="2.5" fill="#ffffff"></circle>
<circle cx="71" cy="88" r="1.2" fill="#ffffff" opacity="0.9"></circle>


<circle cx="127" cy="88" r="2.8" fill="#ff2020" class="fd" filter="url(#mg)"></circle>
<circle cx="15" cy="88" r="2.2" fill="#cc0000" class="P2"></circle>



<text x="79" y="82" font-family="monospace" font-size="5.5" fill="#ff4010" opacity="0.75">TA</text>


<text x="71" y="60" text-anchor="middle" font-family="monospace" font-size="5.5" fill="#ff5030" class="cy1 df">X:47.3°N Y:122.1°W</text>
<text x="71" y="60" text-anchor="middle" font-family="monospace" font-size="5.5" fill="#ff5030" class="cy2 df2">X:47.4°N Y:122.0°W</text>
<text x="71" y="60" text-anchor="middle" font-family="monospace" font-size="5.5" fill="#ff5030" class="cy3 df3">X:47.2°N Y:122.2°W</text>


<text x="71" y="116" text-anchor="middle" font-family="monospace" font-size="5.5" fill="#cc3010" class="df">RNG: LOCAL</text>


<text x="71" y="131" text-anchor="middle" font-family="monospace" font-size="5.5" fill="#ff2020" letter-spacing="0.3" class="bs" filter="url(#sg)">ACQ: ACTIVE</text>


<line x1="18" y1="149" x2="124" y2="149" stroke="#ff2020" stroke-width="0.4" opacity="0.25"></line>
<text x="71" y="159" text-anchor="middle" font-family="monospace" font-size="6.5" fill="#ff2020" letter-spacing="2" font-weight="bold" class="bl" filter="url(#sg)">TARGET ACQ</text>






<g clip-path="url(#rightClip)" opacity="0.18">
  <g class="ds1">
    <text x="144" y="20" font-family="monospace" font-size="5" fill="#aa1010">0xF2A4 01001011 AUTH:OK 0x8C3F FF:32:AA</text>
    <text x="144" y="30" font-family="monospace" font-size="5" fill="#881010">NET:STABLE 0x4E1B LOCAL:1 KEY:7F STATUS</text>
    <text x="144" y="40" font-family="monospace" font-size="5" fill="#aa1010">01101100 SYS:ONLINE 0x9D2C ALERT:0 RNG</text>
    <text x="144" y="50" font-family="monospace" font-size="5" fill="#881010">0xBC09 HMAC:PASS 00110101 SEC:ACTIVE</text>
    <text x="144" y="60" font-family="monospace" font-size="5" fill="#aa1010">0xF2A4 01001011 AUTH:OK 0x8C3F FF:32:AA</text>
    <text x="144" y="70" font-family="monospace" font-size="5" fill="#881010">NET:STABLE 0x4E1B LOCAL:1 KEY:7F STATUS</text>
    <text x="144" y="80" font-family="monospace" font-size="5" fill="#aa1010">01101100 SYS:ONLINE 0x9D2C ALERT:0 RNG</text>
    <text x="144" y="90" font-family="monospace" font-size="5" fill="#881010">0xBC09 HMAC:PASS 00110101 SEC:ACTIVE</text>
    <text x="144" y="100" font-family="monospace" font-size="5" fill="#aa1010">0xF2A4 01001011 AUTH:OK 0x8C3F FF:32:AA</text>
    <text x="144" y="110" font-family="monospace" font-size="5" fill="#881010">NET:STABLE 0x4E1B LOCAL:1 KEY:7F STATUS</text>
    <text x="144" y="120" font-family="monospace" font-size="5" fill="#aa1010">01101100 SYS:ONLINE 0x9D2C ALERT:0 RNG</text>
    <text x="144" y="130" font-family="monospace" font-size="5" fill="#881010">0xBC09 HMAC:PASS 00110101 SEC:ACTIVE</text>
    <text x="144" y="140" font-family="monospace" font-size="5" fill="#aa1010">0xF2A4 01001011 AUTH:OK 0x8C3F FF:32:AA</text>
    <text x="144" y="150" font-family="monospace" font-size="5" fill="#881010">NET:STABLE 0x4E1B LOCAL:1 KEY:7F STATUS</text>
  </g>
  <g class="ds2">
    <text x="144" y="20" font-family="monospace" font-size="5" fill="#661010">KEY:7F SYS:RDY 01110011 0xD3E8 BOOT:OK</text>
    <text x="144" y="30" font-family="monospace" font-size="5" fill="#550000">AUTH:PASS 0xA12F 10101010 LOGS:CLEAR</text>
    <text x="144" y="40" font-family="monospace" font-size="5" fill="#661010">0x3B4C STATUS:1 00011011 NET:OK RNG:LCL</text>
    <text x="144" y="50" font-family="monospace" font-size="5" fill="#550000">0xE7D1 SEC:PASS HMAC:256 KEY:ACT 0xF0</text>
    <text x="144" y="60" font-family="monospace" font-size="5" fill="#661010">KEY:7F SYS:RDY 01110011 0xD3E8 BOOT:OK</text>
    <text x="144" y="70" font-family="monospace" font-size="5" fill="#550000">AUTH:PASS 0xA12F 10101010 LOGS:CLEAR</text>
    <text x="144" y="80" font-family="monospace" font-size="5" fill="#661010">0x3B4C STATUS:1 00011011 NET:OK RNG:LCL</text>
    <text x="144" y="90" font-family="monospace" font-size="5" fill="#550000">0xE7D1 SEC:PASS HMAC:256 KEY:ACT 0xF0</text>
    <text x="144" y="100" font-family="monospace" font-size="5" fill="#661010">KEY:7F SYS:RDY 01110011 0xD3E8 BOOT:OK</text>
    <text x="144" y="110" font-family="monospace" font-size="5" fill="#550000">AUTH:PASS 0xA12F 10101010 LOGS:CLEAR</text>
    <text x="144" y="120" font-family="monospace" font-size="5" fill="#661010">0x3B4C STATUS:1 00011011 NET:OK RNG:LCL</text>
    <text x="144" y="130" font-family="monospace" font-size="5" fill="#550000">0xE7D1 SEC:PASS HMAC:256 KEY:ACT 0xF0</text>
    <text x="144" y="140" font-family="monospace" font-size="5" fill="#661010">KEY:7F SYS:RDY 01110011 0xD3E8 BOOT:OK</text>
    <text x="144" y="150" font-family="monospace" font-size="5" fill="#550000">AUTH:PASS 0xA12F 10101010 LOGS:CLEAR</text>
  </g>
</g>


<rect x="140" y="6" width="266" height="156" rx="10" fill="#060000" opacity="0.72"></rect>


<text x="272" y="34" text-anchor="middle" font-family="'Montserrat','Segoe UI',Arial,sans-serif" font-weight="900" font-size="23" letter-spacing="3" fill="url(#butlerGrad)" filter="url(#sg)">BUTLER AI</text>

<text x="272" y="34" text-anchor="middle" font-family="'Montserrat','Segoe UI',Arial,sans-serif" font-weight="900" font-size="23" letter-spacing="3" fill="#ff2020" opacity="0.15" filter="url(#lg)">BUTLER AI</text>

<line x1="148" y1="42" x2="400" y2="42" stroke="#ff2020" stroke-width="0.6" opacity="0.3" class="fd"></line>


<g stroke="#ff2020" stroke-width="1.2" fill="none" class="P2" filter="url(#sg)">
  <path d="M142 18  L142 6  L154 6"></path>
  <path d="M394 6  L406 6  L406 18"></path>
  <path d="M142 150 L142 162 L154 162"></path>
  <path d="M394 162 L406 162 L406 150"></path>
</g>





<g transform="translate(148,50)">
  <path d="M8 1 L15 3.5 L15 10 C15 14 11.5 16.5 8 17.5 C4.5 16.5 1 14 1 10 L1 3.5 Z" fill="#1a0000" stroke="#ff2020" stroke-width="1.3" filter="url(#sg)"></path>
  <path d="M8 5 L12 7 L12 11 C12 13.2 10.2 14.2 8 14.8 C5.8 14.2 4 13.2 4 11 L4 7 Z" fill="#ff2020" opacity="0.2"></path>
  <text x="22" y="8" font-family="monospace" font-size="8.5" fill="#ff3a18" font-weight="bold">SECURITY STATUS</text>
  <text x="22" y="17" font-family="monospace" font-size="6.5" fill="#773030" class="df">SECURITY: <tspan fill="#ff4020" class="df">ACTIVE</tspan></text>
</g>


<g transform="translate(148,84)">
  <rect x="1.5" y="8" width="13" height="10" rx="2" fill="#1a0000" stroke="#ff2020" stroke-width="1.3" filter="url(#sg)"></rect>
  <path d="M4.5 8 L4.5 5.5 A3.5 3.5 0 0 1 11.5 5.5 L11.5 8" fill="none" stroke="#ff2020" stroke-width="1.3"></path>
  <circle cx="8" cy="13" r="2" fill="#ff4020" filter="url(#sg)"></circle>
  <text x="22" y="8" font-family="monospace" font-size="8.5" fill="#ff3a18" font-weight="bold">AUTHENTICATION</text>
  <text x="22" y="17" font-family="monospace" font-size="6.5" fill="#773030" class="df2">AUTH: <tspan fill="#ff4020" class="df2">VERIFIED</tspan></text>
</g>


<g transform="translate(148,118)">
  <circle cx="8" cy="9" r="7.5" fill="#1a0000" stroke="#ff2020" stroke-width="1.3" filter="url(#sg)"></circle>
  <polygon points="5.5,5.5 13,9 5.5,12.5" fill="#ff3020" filter="url(#sg)"></polygon>
  <text x="22" y="8" font-family="monospace" font-size="8.5" fill="#ff3a18" font-weight="bold">ROUTINE STARTUP</text>
  <text x="22" y="17" font-family="monospace" font-size="6.5" fill="#773030" class="df3">STATUS: <tspan fill="#ff4020" class="df3">READY</tspan></text>
</g>


<line x1="276" y1="44" x2="276" y2="157" stroke="#ff2020" stroke-width="0.5" opacity="0.2"></line>




<g transform="translate(280,50)">
  <path d="M1 12 A10 10 0 0 1 15 12" fill="none" stroke="#ff2020" stroke-width="1.3" opacity="0.35" filter="url(#sg)"></path>
  <path d="M3.5 15 A6.5 6.5 0 0 1 12.5 15" fill="none" stroke="#ff2020" stroke-width="1.3" opacity="0.7" filter="url(#sg)"></path>
  <circle cx="8" cy="18" r="2.2" fill="#ff3020" filter="url(#sg)"></circle>
  <text x="21" y="8" font-family="monospace" font-size="8.5" fill="#ff3a18" font-weight="bold">NETWORK CONN.</text>
  <text x="21" y="17" font-family="monospace" font-size="6.5" fill="#773030" class="df">CONN: <tspan fill="#ff4020" class="df">STABLE</tspan></text>
</g>


<g transform="translate(280,84)">
  <circle cx="8" cy="9" r="7.5" fill="#1a0000" stroke="#ff2020" stroke-width="1.3" filter="url(#sg)"></circle>
  <line x1="4" y1="5" x2="12" y2="13" stroke="#ff2020" stroke-width="1.8" stroke-linecap="round"></line>
  <line x1="12" y1="5" x2="4" y2="13" stroke="#ff2020" stroke-width="1.8" stroke-linecap="round"></line>
  <text x="21" y="8" font-family="monospace" font-size="8.5" fill="#ff3a18" font-weight="bold">SYSTEM ALERTS</text>
  <text x="21" y="17" font-family="monospace" font-size="6.5" fill="#773030" class="df2">ALERTS: <tspan fill="#ff4020" class="df2">0</tspan></text>
</g>


<g transform="translate(280,118)">
  <circle cx="6" cy="7" r="5.5" fill="#1a0000" stroke="#ff2020" stroke-width="1.3" filter="url(#sg)"></circle>
  <circle cx="6" cy="7" r="2.4" fill="none" stroke="#ff4020" stroke-width="0.9"></circle>
  <rect x="10.5" y="6.2" width="6" height="1.6" rx="0.5" fill="#ff3020"></rect>
  <rect x="14.5" y="7.8" width="1.6" height="2.8" rx="0.5" fill="#ff3020"></rect>
  <rect x="12.2" y="7.8" width="1.6" height="2.2" rx="0.5" fill="#ff3020"></rect>
  <text x="21" y="8" font-family="monospace" font-size="8.5" fill="#ff3a18" font-weight="bold">ACCESS LOGS</text>
  <text x="21" y="17" font-family="monospace" font-size="6.5" fill="#773030" class="df3">ACCESS: <tspan fill="#ff4020" class="df3">GRANTED</tspan></text>
</g>




<rect x="6" y="165" width="400" height="29" rx="8" fill="#060000" stroke="#1e0808" stroke-width="1"></rect>
<rect x="6" y="165" width="400" height="29" rx="8" fill="none" stroke="#ff2020" stroke-width="0.8" class="P2"></rect>




<rect x="17" y="171" width="57" height="17" rx="8.5" fill="url(#btnActiveGrad)" class="abtn" stroke="#ff2020" stroke-width="1.5" filter="url(#sg)"></rect>

<g clip-path="url(#panelClip)" opacity="0.5">
  <rect x="17" y="174" width="20" height="2" rx="1" fill="#ff4020" class="ainner"></rect>
</g>
<text x="45.5" y="183" text-anchor="middle" font-family="monospace" font-size="7.5" fill="#ffffff" font-weight="bold" letter-spacing="0.5" filter="url(#sg)">STATUS</text>


<rect x="82" y="171" width="57" height="17" rx="8.5" fill="#100000" stroke="#880808" stroke-width="0.9"></rect>
<text x="110.5" y="183" text-anchor="middle" font-family="monospace" font-size="7.5" fill="#ff3818" font-weight="bold" letter-spacing="0.5">TASKS</text>


<rect x="147" y="171" width="57" height="17" rx="8.5" fill="#100000" stroke="#880808" stroke-width="0.9"></rect>
<text x="175.5" y="183" text-anchor="middle" font-family="monospace" font-size="7.5" fill="#ff3818" font-weight="bold" letter-spacing="0.5">SCHEDULE</text>


<rect x="212" y="171" width="57" height="17" rx="8.5" fill="#100000" stroke="#880808" stroke-width="0.9"></rect>
<text x="240.5" y="183" text-anchor="middle" font-family="monospace" font-size="7.5" fill="#ff3818" font-weight="bold" letter-spacing="0.5">LOGS</text>


<rect x="277" y="171" width="57" height="17" rx="8.5" fill="#100000" stroke="#880808" stroke-width="0.9"></rect>
<text x="305.5" y="183" text-anchor="middle" font-family="monospace" font-size="7.5" fill="#ff3818" font-weight="bold" letter-spacing="0.5">SETTINGS</text>


<rect x="342" y="171" width="57" height="17" rx="8.5" fill="#100000" stroke="#880808" stroke-width="0.9"></rect>
<text x="370.5" y="183" text-anchor="middle" font-family="monospace" font-size="7.5" fill="#ff3818" font-weight="bold" letter-spacing="0.5">ALERTS</text>


<rect x="156" y="196" width="100" height="1.5" rx="1" fill="url(#edgeLine)" opacity="0.55" class="P"></rect>
<circle cx="22" cy="191" r="1.5" fill="#ff2020" class="bs" filter="url(#sg)"></circle>
<circle cx="390" cy="191" r="1.5" fill="#ff2020" class="bl"></circle>

</svg>
